<svg width="18" height="18" viewBox="0 0 18 18" fill="none" xmlns="http://www.w3.org/2000/svg">
<path fill-rule="evenodd" clip-rule="evenodd" d="M14.2375 2.13749L14.695 5.03249L17.3275 6.37499L16 8.99999L17.335 11.625L14.68 12.9675L14.2225 15.8625L11.305 15.405L9.22754 17.475L7.14254 15.375L4.24754 15.855L3.78254 12.9375L1.16504 11.6025L2.50004 8.97749L1.17254 6.37499L3.80504 5.01749L4.26254 2.14499L7.16504 2.62499L9.25004 0.517487L11.3275 2.59499L14.2375 2.13749ZM7.37504 5.24999C6.75372 5.24999 6.25004 5.75367 6.25004 6.37499C6.25004 6.99631 6.75372 7.49999 7.37504 7.49999C7.99636 7.49999 8.50004 6.99631 8.50004 6.37499C8.50004 5.75367 7.99636 5.24999 7.37504 5.24999ZM11.125 10.5C10.5037 10.5 10 11.0037 10 11.625C10 12.2463 10.5037 12.75 11.125 12.75C11.7464 12.75 12.25 12.2463 12.25 11.625C12.25 11.0037 11.7464 10.5 11.125 10.5ZM6.55754 12.75L13 6.30749L11.9425 5.24999L5.50004 11.6925L6.55754 12.75Z" fill="#171717"/>
</svg>
