<?xml version="1.0" encoding="utf-8"?>
<!-- Generator: Adobe Illustrator 24.2.3, SVG Export Plug-In . SVG Version: 6.00 Build 0)  -->
<svg version="1.0" id="Capa_1" xmlns="http://www.w3.org/2000/svg" xmlns:xlink="http://www.w3.org/1999/xlink" x="0px" y="0px"
	 viewBox="0 0 340.2 340.2" style="enable-background:new 0 0 340.2 340.2;" xml:space="preserve">
<style type="text/css">
	.st0{fill:#13A538;}
	.st1{fill:#125428;}
	.st2{fill:#D9FFDD;}
</style>
<circle class="st0" cx="340.2" cy="315.2" r="172"/>
<circle class="st1" cx="342.1" cy="95" r="95"/>
<g>
	<path class="st2" d="M277.8,274.4H62.4c-17.5,0-31.7-14.2-31.7-31.7V97.5c0-17.5,14.2-31.7,31.7-31.7h215.3
		c17.5,0,31.7,14.2,31.7,31.7v145.2C309.4,260.2,295.2,274.4,277.8,274.4z"/>
	<g>
		<g>
			<path class="st1" d="M97.4,220c-2.5,0-4.5-2-4.5-4.5v-90.8c0-2.5,2-4.5,4.5-4.5s4.5,2,4.5,4.5v90.8C102,218,99.9,220,97.4,220z"
				/>
			<path class="st1" d="M115.6,201.9c-2.5,0-4.5-2-4.5-4.5v-72.7c0-2.5,2-4.5,4.5-4.5s4.5,2,4.5,4.5v72.7
				C120.1,199.8,118.1,201.9,115.6,201.9z"/>
			<path class="st1" d="M133.7,201.9c-2.5,0-4.5-2-4.5-4.5v-72.7c0-2.5,2-4.5,4.5-4.5s4.5,2,4.5,4.5v72.7
				C138.3,199.8,136.3,201.9,133.7,201.9z"/>
			<path class="st1" d="M151.9,201.9c-2.5,0-4.5-2-4.5-4.5v-72.7c0-2.5,2-4.5,4.5-4.5s4.5,2,4.5,4.5v72.7
				C156.5,199.8,154.4,201.9,151.9,201.9z"/>
			<path class="st1" d="M170.1,220c-2.5,0-4.5-2-4.5-4.5v-90.8c0-2.5,2-4.5,4.5-4.5s4.5,2,4.5,4.5v90.8
				C174.6,218,172.6,220,170.1,220z"/>
			<path class="st1" d="M188.2,201.9c-2.5,0-4.5-2-4.5-4.5v-72.7c0-2.5,2-4.5,4.5-4.5s4.5,2,4.5,4.5v72.7
				C192.8,199.8,190.8,201.9,188.2,201.9z"/>
			<path class="st1" d="M206.4,201.9c-2.5,0-4.5-2-4.5-4.5v-72.7c0-2.5,2-4.5,4.5-4.5s4.5,2,4.5,4.5v72.7
				C210.9,199.8,208.9,201.9,206.4,201.9z"/>
			<path class="st1" d="M224.6,201.9c-2.5,0-4.5-2-4.5-4.5v-72.7c0-2.5,2-4.5,4.5-4.5s4.5,2,4.5,4.5v72.7
				C229.1,199.8,227.1,201.9,224.6,201.9z"/>
			<path class="st1" d="M242.7,220c-2.5,0-4.5-2-4.5-4.5v-90.8c0-2.5,2-4.5,4.5-4.5s4.5,2,4.5,4.5v90.8
				C247.3,218,245.2,220,242.7,220z"/>
			<path class="st1" d="M115.6,220c-0.6,0-1.2-0.1-1.7-0.4c-0.6-0.2-1.1-0.5-1.5-1c-1.8-1.7-1.8-4.4-0.2-6.2
				c0.1-0.1,0.1-0.1,0.2-0.2c0.4-0.5,0.9-0.8,1.5-1c1.7-0.7,3.6-0.3,4.9,1c1.8,1.8,1.7,4.7-0.1,6.4C117.9,219.6,116.8,220,115.6,220
				z"/>
			<path class="st1" d="M133.7,220c-0.6,0-1.2-0.1-1.7-0.4c-0.6-0.2-1.1-0.5-1.5-1c-1.8-1.7-1.8-4.4-0.2-6.2
				c0.1-0.1,0.1-0.1,0.2-0.2c0.4-0.5,0.9-0.8,1.5-1c1.7-0.7,3.6-0.3,4.9,1c0.5,0.4,0.8,0.9,1,1.5c0.5,1.1,0.5,2.4,0,3.5
				c-0.2,0.6-0.5,1.1-1,1.5C136.1,219.6,135,220,133.7,220z"/>
			<path class="st1" d="M151.9,220c-0.6,0-1.2-0.1-1.7-0.4c-0.6-0.2-1.1-0.5-1.5-1c-1.8-1.7-1.8-4.4-0.2-6.2
				c0.1-0.1,0.1-0.1,0.2-0.2c0.4-0.5,0.9-0.8,1.5-1c1.7-0.7,3.6-0.3,4.9,1c0.5,0.4,0.8,0.9,1,1.5c0.5,1.1,0.5,2.4,0,3.5
				c-0.2,0.6-0.5,1.1-1,1.5C154.3,219.6,153.1,220,151.9,220z"/>
			<path class="st1" d="M188.2,220c-2.5,0-4.5-2.1-4.5-4.6c0-1.2,0.5-2.3,1.3-3.1c1.8-1.7,4.6-1.7,6.4,0c0.5,0.4,0.8,0.9,1,1.5
				c0.5,1.1,0.5,2.4,0,3.5c-0.2,0.6-0.5,1.1-1,1.5C190.6,219.6,189.4,220,188.2,220z"/>
			<path class="st1" d="M206.4,220c-2.5,0-4.5-2.1-4.5-4.6c0-1.2,0.5-2.3,1.3-3.1c1.8-1.7,4.6-1.7,6.4,0c1.8,1.8,1.7,4.7-0.1,6.4
				C208.7,219.6,207.6,220,206.4,220z"/>
			<path class="st1" d="M224.6,220c-1.2,0-2.4-0.5-3.2-1.4c-0.5-0.4-0.8-0.9-1-1.5c-0.5-1.1-0.5-2.4,0-3.5c0.2-0.6,0.5-1.1,1-1.5
				c1.8-1.7,4.6-1.7,6.4,0c1.8,1.8,1.7,4.7-0.1,6.4C226.9,219.6,225.7,220,224.6,220L224.6,220z"/>
		</g>
		<g>
			<path class="st1" d="M70.2,129.2c-2.5,0-4.5-2-4.5-4.5V97.4c0-2.5,2-4.5,4.5-4.5h27.2c2.5,0,4.5,2,4.5,4.5s-2,4.5-4.5,4.5H74.7
				v22.7C74.7,127.2,72.7,129.2,70.2,129.2z"/>
			<path class="st1" d="M97.4,247.3H70.2c-2.5,0-4.5-2-4.5-4.5v-27.2c0-2.5,2-4.5,4.5-4.5s4.5,2,4.5,4.5v22.7h22.7
				c2.5,0,4.5,2,4.5,4.5S99.9,247.3,97.4,247.3z"/>
			<path class="st1" d="M270,129.2c-2.5,0-4.5-2-4.5-4.5V102h-22.7c-2.5,0-4.5-2-4.5-4.5s2-4.5,4.5-4.5H270c2.5,0,4.5,2,4.5,4.5
				v27.2C274.5,127.2,272.5,129.2,270,129.2z"/>
			<path class="st1" d="M270,247.3h-27.2c-2.5,0-4.5-2-4.5-4.5s2-4.5,4.5-4.5h22.7v-22.7c0-2.5,2-4.5,4.5-4.5s4.5,2,4.5,4.5v27.2
				C274.5,245.2,272.5,247.3,270,247.3z"/>
		</g>
		<path class="st1" d="M97.4,220c-2.5,0-4.5-2-4.5-4.5v-90.8c0-2.5,2-4.5,4.5-4.5s4.5,2,4.5,4.5v90.8C102,218,99.9,220,97.4,220z"/>
		<path class="st1" d="M115.6,201.9c-2.5,0-4.5-2-4.5-4.5v-72.7c0-2.5,2-4.5,4.5-4.5s4.5,2,4.5,4.5v72.7
			C120.1,199.8,118.1,201.9,115.6,201.9z"/>
		<path class="st1" d="M133.7,201.9c-2.5,0-4.5-2-4.5-4.5v-72.7c0-2.5,2-4.5,4.5-4.5s4.5,2,4.5,4.5v72.7
			C138.3,199.8,136.3,201.9,133.7,201.9z"/>
		<path class="st1" d="M151.9,201.9c-2.5,0-4.5-2-4.5-4.5v-72.7c0-2.5,2-4.5,4.5-4.5s4.5,2,4.5,4.5v72.7
			C156.5,199.8,154.4,201.9,151.9,201.9z"/>
		<path class="st1" d="M170.1,220c-2.5,0-4.5-2-4.5-4.5v-90.8c0-2.5,2-4.5,4.5-4.5s4.5,2,4.5,4.5v90.8
			C174.6,218,172.6,220,170.1,220z"/>
		<path class="st1" d="M188.2,201.9c-2.5,0-4.5-2-4.5-4.5v-72.7c0-2.5,2-4.5,4.5-4.5s4.5,2,4.5,4.5v72.7
			C192.8,199.8,190.8,201.9,188.2,201.9z"/>
		<path class="st1" d="M206.4,201.9c-2.5,0-4.5-2-4.5-4.5v-72.7c0-2.5,2-4.5,4.5-4.5s4.5,2,4.5,4.5v72.7
			C210.9,199.8,208.9,201.9,206.4,201.9z"/>
		<path class="st1" d="M224.6,201.9c-2.5,0-4.5-2-4.5-4.5v-72.7c0-2.5,2-4.5,4.5-4.5s4.5,2,4.5,4.5v72.7
			C229.1,199.8,227.1,201.9,224.6,201.9z"/>
		<path class="st1" d="M242.7,220c-2.5,0-4.5-2-4.5-4.5v-90.8c0-2.5,2-4.5,4.5-4.5s4.5,2,4.5,4.5v90.8
			C247.3,218,245.2,220,242.7,220z"/>
		<path class="st1" d="M115.6,220c-0.6,0-1.2-0.1-1.7-0.4c-0.6-0.2-1.1-0.5-1.5-1c-1.8-1.7-1.8-4.5-0.1-6.2l0.1-0.1
			c0.4-0.5,0.9-0.8,1.5-1c1.1-0.5,2.3-0.5,3.5,0c0.6,0.2,1.1,0.5,1.5,1c1.8,1.8,1.7,4.7-0.1,6.4C117.9,219.6,116.8,220,115.6,220z"
			/>
		<path class="st1" d="M133.7,220c-2.5,0-4.5-2.1-4.5-4.6c0-1.2,0.5-2.3,1.3-3.1c1.3-1.3,3.2-1.7,4.9-1c0.6,0.2,1.1,0.5,1.5,1
			c1.8,1.8,1.7,4.7-0.1,6.4C136,219.5,134.9,220,133.7,220z"/>
		<path class="st1" d="M151.9,220c-2.5,0-4.5-2.1-4.5-4.6c0-1.2,0.5-2.3,1.3-3.1c0.4-0.5,0.9-0.8,1.5-1c1.7-0.7,3.6-0.3,4.9,1
			c1.8,1.8,1.7,4.7-0.1,6.4C154.2,219.6,153.1,220,151.9,220L151.9,220L151.9,220z"/>
		<path class="st1" d="M188.2,220c-0.6,0-1.2-0.1-1.7-0.4c-0.6-0.2-1.1-0.5-1.5-1c-1.8-1.7-1.8-4.5-0.1-6.2l0.1-0.1
			c0.4-0.5,0.9-0.8,1.5-1c1.1-0.5,2.3-0.5,3.5,0c0.6,0.2,1.1,0.5,1.5,1c1.8,1.8,1.7,4.7-0.1,6.4C190.5,219.6,189.4,220,188.2,220
			L188.2,220z"/>
		<path class="st1" d="M206.4,220c-0.6,0-1.2-0.1-1.7-0.4c-0.6-0.2-1.1-0.5-1.5-1c-1.8-1.7-1.8-4.5-0.1-6.2l0.1-0.1
			c1.8-1.7,4.6-1.7,6.4,0c1.8,1.7,1.8,4.4,0.2,6.2c-0.1,0.1-0.1,0.1-0.2,0.2c-0.4,0.5-0.9,0.8-1.5,1C207.6,219.9,207,220,206.4,220z
			"/>
		<path class="st1" d="M224.6,220c-0.6,0-1.2-0.1-1.7-0.4c-0.6-0.2-1.1-0.5-1.5-1c-0.9-0.8-1.4-2-1.4-3.2c0-0.6,0.1-1.2,0.4-1.7
			c0.2-0.6,0.5-1.1,1-1.5c0.4-0.5,0.9-0.8,1.5-1c1.7-0.7,3.6-0.3,4.9,1c0.5,0.4,0.8,0.9,1,1.5c0.3,0.5,0.4,1.1,0.4,1.7
			C229,218,227,220,224.6,220L224.6,220z"/>
		<path class="st1" d="M70.2,129.2c-2.5,0-4.5-2-4.5-4.5V97.4c0-2.5,2-4.5,4.5-4.5h27.2c2.5,0,4.5,2,4.5,4.5s-2,4.5-4.5,4.5H74.7
			v22.7C74.7,127.2,72.7,129.2,70.2,129.2z"/>
		<path class="st1" d="M97.4,247.3H70.2c-2.5,0-4.5-2-4.5-4.5v-27.2c0-2.5,2-4.5,4.5-4.5s4.5,2,4.5,4.5v22.7h22.7
			c2.5,0,4.5,2,4.5,4.5S99.9,247.3,97.4,247.3z"/>
		<path class="st1" d="M270,129.2c-2.5,0-4.5-2-4.5-4.5V102h-22.7c-2.5,0-4.5-2-4.5-4.5s2-4.5,4.5-4.5H270c2.5,0,4.5,2,4.5,4.5v27.2
			C274.5,127.2,272.5,129.2,270,129.2z"/>
		<path class="st1" d="M270,247.3h-27.2c-2.5,0-4.5-2-4.5-4.5s2-4.5,4.5-4.5h22.7v-22.7c0-2.5,2-4.5,4.5-4.5s4.5,2,4.5,4.5v27.2
			C274.5,245.2,272.5,247.3,270,247.3z"/>
	</g>
</g>
</svg>
