<svg width="24" height="24" viewBox="0 0 24 24" fill="none" xmlns="http://www.w3.org/2000/svg">
<path fill-rule="evenodd" clip-rule="evenodd" d="M12 10C11.3096 10 10.75 9.44036 10.75 8.75C10.75 8.05964 11.3096 7.5 12 7.5C12.6904 7.5 13.25 8.05964 13.25 8.75C13.25 9.44036 12.6904 10 12 10V10ZM12 11.5C12.5523 11.5 13 11.9477 13 12.5V15.5C13 16.0523 12.5523 16.5 12 16.5C11.4477 16.5 11 16.0523 11 15.5V12.5C11 11.9477 11.4477 11.5 12 11.5ZM12 22C6.47715 22 2 17.5228 2 12C2 6.47715 6.47715 2 12 2C17.5228 2 22 6.47715 22 12C21.9939 17.5203 17.5203 21.9939 12 22ZM12 4C7.58172 4 4 7.58172 4 12C4 16.4183 7.58172 20 12 20C16.4183 20 20 16.4183 20 12C19.9949 7.58382 16.4162 4.00505 12 4V4Z" fill="#42526E"/>
</svg>
