<svg width="18" height="18" viewBox="0 0 18 18" fill="none" xmlns="http://www.w3.org/2000/svg">
<path fill-rule="evenodd" clip-rule="evenodd" d="M14 15L9 12.82L4 15V2H14V15ZM14 0H4C2.89543 0 2 0.89543 2 2V18L9 15L16 18V2C16 0.89 15.1 0 14 0Z" fill="#171717"/>
<mask id="mask0_0_2920" style="mask-type:luminance" maskUnits="userSpaceOnUse" x="2" y="0" width="14" height="18">
<path fill-rule="evenodd" clip-rule="evenodd" d="M14 15L9 12.82L4 15V2H14V15ZM14 0H4C2.89543 0 2 0.89543 2 2V18L9 15L16 18V2C16 0.89 15.1 0 14 0Z" fill="white"/>
</mask>
<g mask="url(#mask0_0_2920)">
</g>
</svg>
