<svg width="18" height="18" viewBox="0 0 18 18" fill="none" xmlns="http://www.w3.org/2000/svg">
<path fill-rule="evenodd" clip-rule="evenodd" d="M8.99999 5.4C10.9882 5.4 12.6 7.01178 12.6 9C12.6 10.9882 10.9882 12.6 8.99999 12.6C7.01176 12.6 5.39999 10.9882 5.39999 9C5.39999 7.01178 7.01176 5.4 8.99999 5.4ZM8.99999 7.2C8.00588 7.2 7.19999 8.00589 7.19999 9C7.19999 9.99411 8.00588 10.8 8.99999 10.8C9.9941 10.8 10.8 9.99411 10.8 9C10.8 8.00589 9.9941 7.2 8.99999 7.2ZM7.19999 18C6.97499 18 6.78599 17.838 6.74999 17.622L6.41699 15.237C5.84999 15.012 5.36399 14.706 4.89599 14.346L2.65499 15.255C2.45699 15.327 2.21399 15.255 2.10599 15.057L0.30599 11.943C0.18899 11.745 0.24299 11.502 0.41399 11.367L2.31299 9.873L2.24999 9L2.31299 8.1L0.41399 6.633C0.24299 6.498 0.18899 6.255 0.30599 6.057L2.10599 2.943C2.21399 2.745 2.45699 2.664 2.65499 2.745L4.89599 3.645C5.36399 3.294 5.84999 2.988 6.41699 2.763L6.74999 0.378C6.78599 0.162 6.97499 0 7.19999 0H10.8C11.025 0 11.214 0.162 11.25 0.378L11.583 2.763C12.15 2.988 12.636 3.294 13.104 3.645L15.345 2.745C15.543 2.664 15.786 2.745 15.894 2.943L17.694 6.057C17.811 6.255 17.757 6.498 17.586 6.633L15.687 8.1L15.75 9L15.687 9.9L17.586 11.367C17.757 11.502 17.811 11.745 17.694 11.943L15.894 15.057C15.786 15.255 15.543 15.336 15.345 15.255L13.104 14.355C12.636 14.706 12.15 15.012 11.583 15.237L11.25 17.622C11.214 17.838 11.025 18 10.8 18H7.19999ZM8.32499 1.8L7.99199 4.149C6.91199 4.374 5.95799 4.95 5.26499 5.751L3.09599 4.815L2.42099 5.985L4.31999 7.38C3.95999 8.433 3.95999 9.576 4.31999 10.62L2.41199 12.024L3.08699 13.194L5.27399 12.258C5.96699 13.05 6.91199 13.626 7.98299 13.842L8.31599 16.2H9.68399L10.017 13.851C11.088 13.626 12.033 13.05 12.726 12.258L14.913 13.194L15.588 12.024L13.68 10.629C14.04 9.576 14.04 8.433 13.68 7.38L15.579 5.985L14.904 4.815L12.735 5.751C12.042 4.95 11.088 4.374 10.008 4.158L9.67499 1.8H8.32499Z" fill="#171717"/>
<mask id="mask0_0_3219" style="mask-type:luminance" maskUnits="userSpaceOnUse" x="0" y="0" width="18" height="18">
<path fill-rule="evenodd" clip-rule="evenodd" d="M8.99999 5.4C10.9882 5.4 12.6 7.01178 12.6 9C12.6 10.9882 10.9882 12.6 8.99999 12.6C7.01176 12.6 5.39999 10.9882 5.39999 9C5.39999 7.01178 7.01176 5.4 8.99999 5.4ZM8.99999 7.2C8.00588 7.2 7.19999 8.00589 7.19999 9C7.19999 9.99411 8.00588 10.8 8.99999 10.8C9.9941 10.8 10.8 9.99411 10.8 9C10.8 8.00589 9.9941 7.2 8.99999 7.2ZM7.19999 18C6.97499 18 6.78599 17.838 6.74999 17.622L6.41699 15.237C5.84999 15.012 5.36399 14.706 4.89599 14.346L2.65499 15.255C2.45699 15.327 2.21399 15.255 2.10599 15.057L0.30599 11.943C0.18899 11.745 0.24299 11.502 0.41399 11.367L2.31299 9.873L2.24999 9L2.31299 8.1L0.41399 6.633C0.24299 6.498 0.18899 6.255 0.30599 6.057L2.10599 2.943C2.21399 2.745 2.45699 2.664 2.65499 2.745L4.89599 3.645C5.36399 3.294 5.84999 2.988 6.41699 2.763L6.74999 0.378C6.78599 0.162 6.97499 0 7.19999 0H10.8C11.025 0 11.214 0.162 11.25 0.378L11.583 2.763C12.15 2.988 12.636 3.294 13.104 3.645L15.345 2.745C15.543 2.664 15.786 2.745 15.894 2.943L17.694 6.057C17.811 6.255 17.757 6.498 17.586 6.633L15.687 8.1L15.75 9L15.687 9.9L17.586 11.367C17.757 11.502 17.811 11.745 17.694 11.943L15.894 15.057C15.786 15.255 15.543 15.336 15.345 15.255L13.104 14.355C12.636 14.706 12.15 15.012 11.583 15.237L11.25 17.622C11.214 17.838 11.025 18 10.8 18H7.19999ZM8.32499 1.8L7.99199 4.149C6.91199 4.374 5.95799 4.95 5.26499 5.751L3.09599 4.815L2.42099 5.985L4.31999 7.38C3.95999 8.433 3.95999 9.576 4.31999 10.62L2.41199 12.024L3.08699 13.194L5.27399 12.258C5.96699 13.05 6.91199 13.626 7.98299 13.842L8.31599 16.2H9.68399L10.017 13.851C11.088 13.626 12.033 13.05 12.726 12.258L14.913 13.194L15.588 12.024L13.68 10.629C14.04 9.576 14.04 8.433 13.68 7.38L15.579 5.985L14.904 4.815L12.735 5.751C12.042 4.95 11.088 4.374 10.008 4.158L9.67499 1.8H8.32499Z" fill="white"/>
</mask>
<g mask="url(#mask0_0_3219)">
</g>
</svg>
