<svg clip-rule="evenodd" fill-rule="evenodd" height="512" image-rendering="optimizeQuality" shape-rendering="geometricPrecision" text-rendering="geometricPrecision" viewBox="0 0 32.85 32.85" width="512" xmlns="http://www.w3.org/2000/svg" xmlns:xodm="http://www.corel.com/coreldraw/odm/2003"><g id="Vrstva_x0020_1"><path d="m27.21 0h-21.53c-3.12 0-5.68 2.56-5.68 5.68v21.49c0 3.16 2.56 5.68 5.68 5.68h21.49c3.16 0 5.68-2.56 5.68-5.68v-21.49c.04-3.12-2.52-5.68-5.64-5.68zm2.87 27.21c0 1.59-1.28 2.87-2.87 2.87h-21.53c-1.6 0-2.88-1.28-2.88-2.87v-21.53c0-1.6 1.28-2.88 2.88-2.88h21.49c1.6 0 2.88 1.28 2.88 2.88v21.53z"/><path d="m9.24 25.5h4v-5.44h3.03c1.02 0 1.98-.14 2.87-.41.88-.27 1.66-.67 2.32-1.21.67-.53 1.2-1.2 1.57-1.99.38-.8.57-1.72.58-2.77v-.05c0-.93-.16-1.78-.48-2.55-.31-.76-.77-1.43-1.37-1.98-.6-.56-1.33-.99-2.19-1.29-.85-.3-1.83-.45-2.91-.46h-7.42zm4-9v-5.54h3.08c.67 0 1.25.1 1.73.31.49.21.86.52 1.12.93.26.4.39.91.39 1.5v.06c0 .52-.12.99-.37 1.4s-.61.74-1.08.98-1.04.36-1.71.36z" fill-rule="nonzero"/></g></svg>