<?xml version="1.0" encoding="UTF-8" standalone="no"?>
<!-- Created with Inkscape (http://www.inkscape.org/) -->

<svg
   version="1.1"
   id="svg6672"
   xml:space="preserve"
   width="682.66669"
   height="682.66669"
   viewBox="0 0 682.66669 682.66669"
   xmlns="http://www.w3.org/2000/svg"
   xmlns:svg="http://www.w3.org/2000/svg"><defs
     id="defs6676"><clipPath
       clipPathUnits="userSpaceOnUse"
       id="clipPath6686"><path
         d="M 0,512 H 512 V 0 H 0 Z"
         id="path6684" /></clipPath></defs><g
     id="g6678"
     transform="matrix(1.3333333,0,0,-1.3333333,0,682.66667)"><g
       id="g6680"><g
         id="g6682"
         clip-path="url(#clipPath6686)"><g
           id="g6688"
           transform="translate(454.875,452.1982)"><path
             d="m 0,0 h -397.75 c -16.569,0 -30,-13.432 -30,-30 V -293.655 H 30 V -30 C 30,-13.432 16.569,0 0,0"
             style="fill:#edf6ff;fill-opacity:1;fill-rule:nonzero;stroke:none"
             id="path6690" /></g><g
           id="g6692"
           transform="translate(454.875,452.1982)"><path
             d="M 0,0 H -15.053 C -4.966,-4.834 2,-15.137 2,-27.068 v -263.656 h -429.75 v -2.931 H 30 V -30 C 30,-13.432 16.569,0 0,0"
             style="fill:#cde2ff;fill-opacity:1;fill-rule:nonzero;stroke:none"
             id="path6694" /></g><g
           id="g6696"
           transform="translate(453.042,263.4219)"><path
             d="m 0,0 c -1.203,17.82 -15.344,32.405 -33.12,34.131 -3.038,0.295 -6.007,0.218 -8.87,-0.19 -5.489,-0.779 -10.987,1.636 -14.235,6.128 -6.697,9.261 -17.591,15.287 -29.893,15.287 -12.303,0 -23.197,-6.026 -29.894,-15.287 -3.248,-4.493 -8.747,-6.907 -14.235,-6.128 -2.862,0.408 -5.832,0.485 -8.869,0.19 C -156.893,32.405 -171.034,17.82 -172.237,0 c -1.453,-21.521 15.573,-66.161 36.782,-66.161 h 98.673 C -15.572,-66.161 1.453,-21.521 0,0"
             style="fill:#77d1b3;fill-opacity:1;fill-rule:nonzero;stroke:none"
             id="path6698" /></g><g
           id="g6700"
           transform="translate(18.4512,349.375)"><path
             d="m 0,0 v -24.198 c 0,-3.224 2.613,-5.837 5.837,-5.837 h 241.739 c 3.224,0 5.837,2.613 5.837,5.837 V 0 c 0,3.224 -2.613,5.837 -5.837,5.837 H 5.837 C 2.613,5.837 0,3.224 0,0"
             style="fill:#5d91b9;fill-opacity:1;fill-rule:nonzero;stroke:none"
             id="path6702" /></g><g
           id="g6704"
           transform="translate(266.0273,355.2119)"><path
             d="m 0,0 h -23.598 c 3.224,0 5.837,-2.613 5.837,-5.837 v -24.198 c 0,-3.224 -2.613,-5.837 -5.837,-5.837 H 0 c 3.224,0 5.837,2.613 5.837,5.837 V -5.837 C 5.837,-2.613 3.224,0 0,0"
             style="fill:#4980ac;fill-opacity:1;fill-rule:nonzero;stroke:none"
             id="path6706" /></g><g
           id="g6708"
           transform="translate(48.5947,355.2119)"><path
             d="m 0,0 16.239,28.033 c 2.327,4.018 6.619,6.491 11.262,6.491 h 138.124 c 4.643,0 8.935,-2.473 11.262,-6.491 L 193.127,0 Z"
             style="fill:#9abbd4;fill-opacity:1;fill-rule:nonzero;stroke:none"
             id="path6710" /></g><g
           id="g6712"
           transform="translate(225.4814,383.2451)"><path
             d="m 0,0 c -2.327,4.018 -6.619,6.491 -11.262,6.491 h -23.597 c 4.643,0 8.934,-2.473 11.261,-6.491 L -7.357,-28.033 H 16.24 Z"
             style="fill:#81a9c8;fill-opacity:1;fill-rule:nonzero;stroke:none"
             id="path6714" /></g><g
           id="g6716"
           transform="translate(68.5947,141.2871)"><path
             d="M 0,0 -20,178.053 H 173.127 L 153.127,0 Z"
             style="fill:#df646e;fill-opacity:1;fill-rule:nonzero;stroke:none"
             id="path6718" /></g><g
           id="g6720"
           transform="translate(218.124,319.3398)"><path
             d="M 0,0 -20,-178.053 H 3.598 L 23.598,0 Z"
             style="fill:#ca4646;fill-opacity:1;fill-rule:nonzero;stroke:none"
             id="path6722" /></g><g
           id="g6724"
           transform="translate(240.6279,253.3311)"><path
             d="m 0,0 -50.762,-74.084 c -19.973,-29.151 0.9,-68.755 36.238,-68.755 H 86.997 c 35.337,0 56.21,39.605 36.236,68.755 L 72.473,0 C 55.025,25.464 17.447,25.463 0,0"
             style="fill:#eaab8a;fill-opacity:1;fill-rule:nonzero;stroke:none"
             id="path6726" /></g><g
           id="g6728"
           transform="translate(363.8613,179.2471)"><path
             d="m 0,0 -50.761,74.084 c -11.244,16.41 -30.845,22.228 -48.035,17.485 9.483,-2.615 18.234,-8.432 24.438,-17.485 L -23.598,0 c 19.975,-29.15 -0.898,-68.755 -36.236,-68.755 h 23.598 C -0.899,-68.755 19.974,-29.15 0,0"
             style="fill:#e5936a;fill-opacity:1;fill-rule:nonzero;stroke:none"
             id="path6730" /></g><g
           id="g6732"
           transform="translate(344.7275,253.3311)"><path
             d="m 0,0 -50.762,-74.084 c -19.973,-29.151 0.9,-68.755 36.237,-68.755 H 86.997 c 35.337,0 56.21,39.605 36.236,68.755 L 72.473,0 C 55.025,25.464 17.447,25.463 0,0"
             style="fill:#f1cd88;fill-opacity:1;fill-rule:nonzero;stroke:none"
             id="path6734" /></g><g
           id="g6736"
           transform="translate(467.9609,179.2471)"><path
             d="m 0,0 -50.761,74.084 c -11.244,16.41 -30.845,22.228 -48.035,17.485 9.483,-2.615 18.234,-8.432 24.438,-17.485 L -23.598,0 c 19.974,-29.15 -0.898,-68.755 -36.236,-68.755 h 23.598 C -0.899,-68.755 19.974,-29.15 0,0"
             style="fill:#e9a761;fill-opacity:1;fill-rule:nonzero;stroke:none"
             id="path6738" /></g><g
           id="g6740"
           transform="translate(470.4785,56.8701)"><path
             d="m 0,0 h -428.957 c -7.951,0 -14.397,6.445 -14.397,14.396 v 90.208 H 14.396 V 14.396 C 14.396,6.445 7.951,0 0,0"
             style="fill:#edf6ff;fill-opacity:1;fill-rule:nonzero;stroke:none"
             id="path6742" /></g><g
           id="g6744"
           transform="translate(456.875,161.4746)"><path
             d="m 0,0 v -90.208 c 0,-7.95 -6.445,-14.396 -14.396,-14.396 h 28 c 7.951,0 14.396,6.446 14.396,14.396 V 0 Z"
             style="fill:#cde2ff;fill-opacity:1;fill-rule:nonzero;stroke:none"
             id="path6746" /></g><g
           id="g6748"
           transform="translate(7.5,168.6943)"><path
             d="M 0,0 C 0,-12.573 10.192,-22.767 22.766,-22.767 H 474.234 C 486.808,-22.767 497,-12.573 497,0 497,12.573 486.808,22.766 474.234,22.766 H 22.766 C 10.192,22.766 0,12.573 0,0"
             style="fill:#75cff9;fill-opacity:1;fill-rule:nonzero;stroke:none"
             id="path6750" /></g><g
           id="g6752"
           transform="translate(481.7344,191.46)"><path
             d="m 0,0 h -28 c 12.572,0 22.766,-10.192 22.766,-22.766 0,-12.573 -10.194,-22.766 -22.766,-22.766 H 0 c 12.573,0 22.766,10.193 22.766,22.766 C 22.766,-10.192 12.573,0 0,0"
             style="fill:#62a4fb;fill-opacity:1;fill-rule:nonzero;stroke:none"
             id="path6754" /></g><g
           id="g6756"
           transform="translate(282.46,272.0596)"><path
             d="m 0,0 c 4.39,13.71 16.67,24.061 31.47,25.49 3.03,0.3 6,0.22 8.87,-0.189 5.48,-0.78 10.98,1.639 14.23,6.13 6.701,9.259 17.59,15.29 29.89,15.29 12.311,0 23.2,-6.031 29.9,-15.29 3.25,-4.491 8.74,-6.91 14.23,-6.13 2.86,0.409 5.83,0.489 8.87,0.189 17.78,-1.719 31.92,-16.309 33.12,-34.13 0.8,-11.79 -3.95,-30.519 -11.89,-45.04"
             style="fill:none;stroke:#000000;stroke-width:15;stroke-linecap:round;stroke-linejoin:round;stroke-miterlimit:10;stroke-dasharray:none;stroke-opacity:1"
             id="path6758" /></g><g
           id="g6760"
           transform="translate(27.1201,355.21)"><path
             d="m 0,0 v 69.92 c 0,16.57 13.439,30 30,30 h 397.76 c 16.56,0 30,-13.43 30,-30 v -233.89"
             style="fill:none;stroke:#000000;stroke-width:15;stroke-linecap:round;stroke-linejoin:round;stroke-miterlimit:10;stroke-dasharray:none;stroke-opacity:1"
             id="path6762" /></g><g
           id="g6764"
           transform="translate(27.1201,191.2402)"><path
             d="M 0,0 V 128.1"
             style="fill:none;stroke:#000000;stroke-width:15;stroke-linecap:round;stroke-linejoin:round;stroke-miterlimit:10;stroke-dasharray:none;stroke-opacity:1"
             id="path6766" /></g><g
           id="g6768"
           transform="translate(18.4512,349.375)"><path
             d="m 0,0 v -24.198 c 0,-3.224 2.613,-5.837 5.837,-5.837 h 241.739 c 3.224,0 5.837,2.613 5.837,5.837 V 0 c 0,3.224 -2.613,5.837 -5.837,5.837 H 5.837 C 2.613,5.837 0,3.224 0,0 Z"
             style="fill:none;stroke:#000000;stroke-width:15;stroke-linecap:round;stroke-linejoin:round;stroke-miterlimit:10;stroke-dasharray:none;stroke-opacity:1"
             id="path6770" /></g><g
           id="g6772"
           transform="translate(48.5947,355.2119)"><path
             d="m 0,0 16.239,28.033 c 2.327,4.018 6.619,6.491 11.262,6.491 h 20.525"
             style="fill:none;stroke:#000000;stroke-width:15;stroke-linecap:round;stroke-linejoin:round;stroke-miterlimit:10;stroke-dasharray:none;stroke-opacity:1"
             id="path6774" /></g><g
           id="g6776"
           transform="translate(131.6211,389.7363)"><path
             d="m 0,0 h 82.599 c 4.642,0 8.934,-2.474 11.261,-6.491 l 16.241,-28.033"
             style="fill:none;stroke:#000000;stroke-width:15;stroke-linecap:round;stroke-linejoin:round;stroke-miterlimit:10;stroke-dasharray:none;stroke-opacity:1"
             id="path6778" /></g><g
           id="g6780"
           transform="translate(62.9502,191.46)"><path
             d="M 0,0 -14.36,127.88"
             style="fill:none;stroke:#000000;stroke-width:15;stroke-linecap:round;stroke-linejoin:round;stroke-miterlimit:10;stroke-dasharray:none;stroke-opacity:1"
             id="path6782" /></g><g
           id="g6784"
           transform="translate(241.7197,319.3398)"><path
             d="M 0,0 -8.649,-77.05"
             style="fill:none;stroke:#000000;stroke-width:15;stroke-linecap:round;stroke-linejoin:round;stroke-miterlimit:10;stroke-dasharray:none;stroke-opacity:1"
             id="path6786" /></g><g
           id="g6788"
           transform="translate(198.2402,191.46)"><path
             d="m 0,0 42.39,61.87 c 17.45,25.46 55.02,25.46 72.469,0 L 130.68,38.79"
             style="fill:none;stroke:#000000;stroke-width:15;stroke-linecap:round;stroke-linejoin:round;stroke-miterlimit:10;stroke-dasharray:none;stroke-opacity:1"
             id="path6790" /></g><g
           id="g6792"
           transform="translate(302.3398,191.46)"><path
             d="m 0,0 42.391,61.87 c 17.439,25.46 55.019,25.46 72.469,0 L 157.25,0"
             style="fill:none;stroke:#000000;stroke-width:15;stroke-linecap:round;stroke-linejoin:round;stroke-miterlimit:10;stroke-dasharray:none;stroke-opacity:1"
             id="path6794" /></g><g
           id="g6796"
           transform="translate(484.8799,146.1504)"><path
             d="M 0,0 V -74.881 C 0,-82.83 -6.45,-89.28 -14.399,-89.28 H -443.36 c -7.95,0 -14.4,6.45 -14.4,14.399 V 0"
             style="fill:none;stroke:#000000;stroke-width:15;stroke-linecap:round;stroke-linejoin:round;stroke-miterlimit:10;stroke-dasharray:none;stroke-opacity:1"
             id="path6798" /></g><g
           id="g6800"
           transform="translate(343.5137,145.9277)"><path
             d="m 0,0 h 138.221 c 12.573,0 22.765,10.193 22.765,22.767 0,12.573 -10.192,22.765 -22.765,22.765 h -451.469 c -12.573,0 -22.766,-10.192 -22.766,-22.765 C -336.014,10.193 -325.821,0 -313.248,0 H -35"
             style="fill:none;stroke:#000000;stroke-width:15;stroke-linecap:round;stroke-linejoin:round;stroke-miterlimit:10;stroke-dasharray:none;stroke-opacity:1"
             id="path6802" /></g></g></g></g></svg>
