<svg width="24" height="24" viewBox="0 0 24 24" fill="none" xmlns="http://www.w3.org/2000/svg">
<path fill-rule="evenodd" clip-rule="evenodd" d="M10 8H16C16.5523 8 17 7.55228 17 7C17 6.44772 16.5523 6 16 6H10C9.44772 6 9 6.44772 9 7C9 7.55228 9.44772 8 10 8ZM8 12H16C16.5523 12 17 11.5523 17 11C17 10.4477 16.5523 10 16 10H8C7.44772 10 7 10.4477 7 11C7 11.5523 7.44772 12 8 12ZM8 16H16C16.5523 16 17 15.5523 17 15C17 14.4477 16.5523 14 16 14H8C7.44772 14 7 14.4477 7 15C7 15.5523 7.44772 16 8 16ZM20 2H4C3.44772 2 3 2.44772 3 3V21C3 21.3788 3.214 21.725 3.55279 21.8944C3.89157 22.0638 4.29698 22.0273 4.6 21.8L6.67 20.25L8.73 21.8C9.08556 22.0667 9.57444 22.0667 9.93 21.8L12 20.25L14.07 21.8C14.4256 22.0667 14.9144 22.0667 15.27 21.8L17.33 20.25L19.4 21.8C19.7045 22.027 20.1113 22.0618 20.45 21.89C20.7863 21.7205 20.9989 21.3766 21 21V3C21 2.44772 20.5523 2 20 2ZM19 19L17.93 18.2C17.5744 17.9333 17.0856 17.9333 16.73 18.2L14.67 19.75L12.6 18.2C12.2444 17.9333 11.7556 17.9333 11.4 18.2L9.33 19.75L7.27 18.2C6.91444 17.9333 6.42556 17.9333 6.07 18.2L5 19V4H19V19Z" fill="#42526E"/>
</svg>
