<svg width="18" height="18" viewBox="0 0 18 18" fill="none" xmlns="http://www.w3.org/2000/svg">
<path fill-rule="evenodd" clip-rule="evenodd" d="M4.73685 1.94738H18V3.84211H4.73685V1.94738ZM4.73685 9.52633V7.63159H18V9.52633H4.73685ZM1.89475 1.47369C2.67957 1.47369 3.3158 2.10992 3.3158 2.89475C3.3158 3.67957 2.67957 4.3158 1.89475 4.3158C1.10992 4.3158 0.473694 3.67957 0.473694 2.89475C0.473694 2.10992 1.10992 1.47369 1.89475 1.47369ZM1.89475 7.1579C2.67957 7.1579 3.3158 7.79413 3.3158 8.57896C3.3158 9.36378 2.67957 10 1.89475 10C1.10992 10 0.473694 9.36378 0.473694 8.57896C0.473694 7.79413 1.10992 7.1579 1.89475 7.1579ZM4.73685 15.2105V13.3158H18V15.2105H4.73685ZM1.89475 12.8421C2.67957 12.8421 3.3158 13.4783 3.3158 14.2632C3.3158 15.048 2.67957 15.6842 1.89475 15.6842C1.10992 15.6842 0.473694 15.048 0.473694 14.2632C0.473694 13.4783 1.10992 12.8421 1.89475 12.8421Z" fill="#171717"/>
<mask id="mask0_0_3245" style="mask-type:luminance" maskUnits="userSpaceOnUse" x="0" y="1" width="18" height="15">
<path fill-rule="evenodd" clip-rule="evenodd" d="M4.73685 1.94738H18V3.84211H4.73685V1.94738ZM4.73685 9.52633V7.63159H18V9.52633H4.73685ZM1.89475 1.47369C2.67957 1.47369 3.3158 2.10992 3.3158 2.89475C3.3158 3.67957 2.67957 4.3158 1.89475 4.3158C1.10992 4.3158 0.473694 3.67957 0.473694 2.89475C0.473694 2.10992 1.10992 1.47369 1.89475 1.47369ZM1.89475 7.1579C2.67957 7.1579 3.3158 7.79413 3.3158 8.57896C3.3158 9.36378 2.67957 10 1.89475 10C1.10992 10 0.473694 9.36378 0.473694 8.57896C0.473694 7.79413 1.10992 7.1579 1.89475 7.1579ZM4.73685 15.2105V13.3158H18V15.2105H4.73685ZM1.89475 12.8421C2.67957 12.8421 3.3158 13.4783 3.3158 14.2632C3.3158 15.048 2.67957 15.6842 1.89475 15.6842C1.10992 15.6842 0.473694 15.048 0.473694 14.2632C0.473694 13.4783 1.10992 12.8421 1.89475 12.8421Z" fill="white"/>
</mask>
<g mask="url(#mask0_0_3245)">
</g>
</svg>
