<svg width="18" height="18" viewBox="0 0 18 18" fill="none" xmlns="http://www.w3.org/2000/svg">
<path fill-rule="evenodd" clip-rule="evenodd" d="M5.62624 13.9237C5.70085 14.0002 5.77619 14.0749 5.89581 14.1918C5.95582 14.2533 6.01644 14.3126 6.10027 14.3931C6.12345 14.4141 6.12836 14.4192 6.18237 14.4764C6.20054 14.4956 6.21445 14.5101 6.2217 14.5173C6.38723 14.6825 6.57758 14.8208 6.78472 14.9266C6.9948 15.0333 7.21993 15.1074 7.45203 15.1461C7.71134 15.1893 7.97356 15.2126 8.24478 15.216C8.32412 15.2182 8.35871 15.2191 8.4017 15.2201C8.48827 15.2221 8.55998 15.2231 8.6281 15.2231H13.3153L13.3168 15.7738V15.2231H13.7888C13.8929 15.2231 13.9786 15.2214 14.1798 15.2158C14.4433 15.2126 14.7062 15.1893 14.9656 15.1462C15.1971 15.1075 15.4213 15.0336 15.6312 14.9265C15.8393 14.8209 16.0293 14.683 16.1929 14.5192C16.3584 14.3524 16.4976 14.1613 16.6023 13.959C16.7087 13.7465 16.7834 13.5195 16.823 13.2907C16.8653 13.031 16.8882 12.7685 16.8917 12.496C16.8959 12.3536 16.8981 12.2299 16.8981 12.112V6.44903L16.8981 6.22069L16.8969 6.1203C16.8951 5.97363 16.8941 5.9095 16.8915 5.81965C16.8882 5.55656 16.8653 5.29409 16.8239 5.03969C16.7834 4.80553 16.7087 4.57857 16.6046 4.37069C16.498 4.1627 16.3596 3.97264 16.1942 3.80718C16.0293 3.64209 15.8393 3.50416 15.6303 3.39807C15.4213 3.29146 15.1971 3.21754 14.9627 3.17839C14.7052 3.13397 14.4445 3.11085 14.1713 3.10906C13.9786 3.10371 13.8929 3.10193 13.7888 3.10193H8.62663C8.55851 3.10193 8.4868 3.10294 8.40023 3.10495L8.23148 3.10926C7.97085 3.11086 7.7108 3.13397 7.45087 3.17889C7.21846 3.21769 6.99333 3.29173 6.78437 3.39789C6.57611 3.50429 6.38576 3.6426 6.20912 3.81858C6.15045 3.88136 6.12713 3.90594 6.107 3.9251C6.02733 4.00027 5.95895 4.06708 5.88484 4.14276C5.76456 4.26011 5.69722 4.32683 5.62015 4.40604L3.76165 6.26529C3.73154 6.29006 3.71956 6.30182 3.70635 6.31487L3.66296 6.35788C3.57001 6.44875 3.53222 6.48634 3.48404 6.53665L1.83704 8.1825L1.80243 8.21685L1.76501 8.25465C1.72546 8.2948 1.70531 8.31516 1.68398 8.33633C1.62518 8.39514 1.60102 8.42001 1.57473 8.44947C1.43377 8.58801 1.328 8.70494 1.2303 8.82847L1.19007 8.87394C1.16613 8.89817 1.14601 8.92582 1.13033 8.95596C1.09257 9.09067 1.09246 9.23318 1.13 9.36794C1.14792 9.40239 1.17061 9.4342 1.19743 9.4624C1.3278 9.61926 1.43759 9.74002 1.55832 9.8598L1.59119 9.89327L1.62275 9.92542C1.65446 9.95762 1.66674 9.97004 1.68406 9.98736C1.70748 10.0106 1.72652 10.0298 1.76657 10.0704C1.80531 10.1097 1.82116 10.1257 1.84255 10.1469L3.48103 11.7877L3.64142 11.9444L3.74852 12.0503C3.76771 12.0661 3.78594 12.0831 3.8031 12.1012L5.62624 13.9237ZM13.3168 16.3251L13.3153 15.7741V16.3251H8.6281C8.55037 16.3251 8.47053 16.3239 8.37608 16.3218C8.33093 16.3207 8.29445 16.3197 8.22272 16.3177C7.90386 16.3137 7.58576 16.2855 7.27088 16.2331C6.92789 16.1758 6.59564 16.0665 6.28449 15.9085C5.97396 15.7498 5.69014 15.5436 5.45442 15.308C5.43482 15.2895 5.42407 15.2783 5.3815 15.2333L5.34873 15.1988C5.24627 15.1008 5.17799 15.034 5.1168 14.9711C5.00079 14.8579 4.91983 14.7776 4.84244 14.6982L3.06126 12.9178L3.00026 12.8601L2.86901 12.7302L2.70619 12.5712L1.0645 10.9272C1.04109 10.904 1.02204 10.8848 0.981995 10.8442C0.943251 10.8049 0.927404 10.7889 0.90627 10.7679C0.885046 10.7467 0.870916 10.7324 0.837029 10.698L0.777524 10.6373C0.639092 10.5001 0.507642 10.3559 0.383671 10.2055C0.270328 10.0827 0.178006 9.94205 0.11048 9.78912L0.0901294 9.73568C-0.0300431 9.36303 -0.0300431 8.96204 0.0901294 8.5894L0.108985 8.53937C0.175591 8.38571 0.268426 8.24491 0.383258 8.12324C0.502184 7.97469 0.630075 7.83354 0.766218 7.70059C0.804803 7.65795 0.839165 7.62279 0.90619 7.55577C0.924874 7.53722 0.941283 7.52063 0.980434 7.4809L1.02189 7.43903L1.02199 7.43893C1.04355 7.41736 1.04357 7.41733 1.06214 7.39908L2.69579 5.76675C2.74672 5.71333 2.79256 5.66773 2.86455 5.59778L2.93202 5.53086C2.95909 5.50413 2.98235 5.48141 3.00539 5.45929L4.8354 3.63251C4.91569 3.5499 4.98849 3.47778 5.10583 3.36352C5.18189 3.28561 5.26083 3.20848 5.34895 3.12536C5.41833 3.05119 5.43314 3.03574 5.44184 3.02783C5.68867 2.7815 5.97249 2.57527 6.28414 2.41605C6.59417 2.25854 6.92642 2.14927 7.26631 2.09253C7.58289 2.03782 7.90345 2.00933 8.21288 2.00756C8.29298 2.00534 8.32947 2.00437 8.37461 2.00332C8.46906 2.00113 8.5489 2 8.62663 2H13.7888C13.9064 2 13.999 2.00192 14.1899 2.00736C14.5118 2.00931 14.8329 2.03779 15.1471 2.09201C15.4897 2.14921 15.8215 2.25863 16.13 2.41597C16.4419 2.57428 16.7267 2.78101 16.9737 3.02828C17.22 3.27467 17.4263 3.55801 17.5876 3.87267C17.7423 4.18158 17.8508 4.51152 17.9106 4.85725C17.9616 5.1709 17.9893 5.48793 17.9931 5.7963C17.9958 5.88551 17.9969 5.95409 17.9987 6.10732L18 6.21304V12.112C18 12.2418 17.9977 12.3761 17.9933 12.5194C17.9893 12.8371 17.9616 13.1542 17.9097 13.4731C17.8508 13.8136 17.7423 14.1435 17.5843 14.4589C17.4249 14.767 17.2195 15.0491 16.9738 15.2966C16.7267 15.5441 16.4419 15.7508 16.1309 15.9086C15.8215 16.0664 15.4897 16.1759 15.1466 16.2332C14.8315 16.2855 14.5128 16.3137 14.2019 16.3175C13.999 16.3232 13.9064 16.3251 13.7888 16.3251H13.3168Z" fill="#171717"/>
</svg>
