<svg width="24" height="24" viewBox="0 0 24 24" fill="none" xmlns="http://www.w3.org/2000/svg">
<path fill-rule="evenodd" clip-rule="evenodd" d="M17 9H6.99998C6.4477 9 5.99998 9.44772 5.99998 10C5.99998 10.5523 6.4477 11 6.99998 11H17C17.5523 11 18 10.5523 18 10C18 9.44772 17.5523 9 17 9ZM13 13H6.99998C6.4477 13 5.99998 13.4477 5.99998 14C5.99998 14.5523 6.4477 15 6.99998 15H13C13.5523 15 14 14.5523 14 14C14 13.4477 13.5523 13 13 13ZM12 2C6.47714 2 1.99998 6.47715 1.99998 12C1.99124 14.3091 2.79078 16.5485 4.25998 18.33L2.25998 20.33C1.97624 20.6176 1.89339 21.0476 2.04998 21.42C2.21985 21.788 2.59504 22.017 2.99998 22H12C17.5228 22 22 17.5228 22 12C22 6.47715 17.5228 2 12 2ZM12 20H5.40999L6.33998 19.07C6.72771 18.68 6.72771 18.05 6.33998 17.66C3.63987 14.9629 3.22087 10.7341 5.33921 7.55952C7.45755 4.38498 11.5233 3.1488 15.0502 4.60691C18.5771 6.06503 20.5829 9.81138 19.8411 13.555C19.0993 17.2986 15.8164 19.997 12 20Z" fill="#42526E"/>
</svg>
