<svg width="18" height="18" viewBox="0 0 18 18" fill="none" xmlns="http://www.w3.org/2000/svg">
<path fill-rule="evenodd" clip-rule="evenodd" d="M2.25 10.125L1.6875 9H5.625L5.175 7.875H1.5L0.9375 6.75H6.7875L6.3375 5.625H0.8325L0.1875 4.5H3C3 3.67157 3.67157 3 4.5 3H13.5V6H15.75L18 9V12.75H16.5C16.5 13.9926 15.4926 15 14.25 15C13.0074 15 12 13.9926 12 12.75H9C9 13.9926 7.99264 15 6.75 15C5.50736 15 4.5 13.9926 4.5 12.75H3V10.125H2.25ZM14.25 13.875C14.8713 13.875 15.375 13.3713 15.375 12.75C15.375 12.1287 14.8713 11.625 14.25 11.625C13.6287 11.625 13.125 12.1287 13.125 12.75C13.125 13.3713 13.6287 13.875 14.25 13.875ZM15.375 7.125H13.5V9H16.845L15.375 7.125ZM6.75 13.875C7.37132 13.875 7.875 13.3713 7.875 12.75C7.875 12.1287 7.37132 11.625 6.75 11.625C6.12868 11.625 5.625 12.1287 5.625 12.75C5.625 13.3713 6.12868 13.875 6.75 13.875Z" fill="#171717"/>
</svg>
