<svg id="SvgjsSvg1012" width="288" height="288" xmlns="http://www.w3.org/2000/svg" version="1.1" xmlns:xlink="http://www.w3.org/1999/xlink" xmlns:svgjs="http://svgjs.com/svgjs"><defs id="SvgjsDefs1013"></defs><g id="SvgjsG1014"><svg xmlns="http://www.w3.org/2000/svg" viewBox="0 0 24 24" width="288" height="288"><path fill="#080707" d="m13,6.25h-2c-.965,0-1.75.785-1.75,1.75v9c0,.414.336.75.75.75s.75-.336.75-.75v-3.25h2.25c2.067,0,3.75-1.682,3.75-3.75s-1.683-3.75-3.75-3.75Zm0,6h-2.25v-4.25c0-.138.112-.25.25-.25h2c1.24,0,2.25,1.009,2.25,2.25s-1.01,2.25-2.25,2.25Z" class="color549bff svgShape"></path><path fill="#000000" d="m12,21.75c-5.376,0-9.75-4.374-9.75-9.75S6.624,2.25,12,2.25s9.75,4.374,9.75,9.75-4.374,9.75-9.75,9.75Zm0-18C7.451,3.75,3.75,7.451,3.75,12s3.701,8.25,8.25,8.25,8.25-3.701,8.25-8.25S16.549,3.75,12,3.75Z" class="color112d55 svgShape"></path></svg></g></svg>