<svg width="18" height="18" viewBox="0 0 18 18" fill="none" xmlns="http://www.w3.org/2000/svg">
<path fill-rule="evenodd" clip-rule="evenodd" d="M9 11.5C10.1046 11.5 11 12.3954 11 13.5C11 14.6046 10.1046 15.5 9 15.5C7.89543 15.5 7 14.6046 7 13.5C7 12.3954 7.89543 11.5 9 11.5ZM9 2.5C10.1046 2.5 11 3.39543 11 4.5C11 5.60457 10.1046 6.5 9 6.5C7.89543 6.5 7 5.60457 7 4.5C7 3.39543 7.89543 2.5 9 2.5Z" fill="#171717"/>
<mask id="mask0_0_2913" style="mask-type:luminance" maskUnits="userSpaceOnUse" x="7" y="2" width="4" height="14">
<path fill-rule="evenodd" clip-rule="evenodd" d="M9 11.5C10.1046 11.5 11 12.3954 11 13.5C11 14.6046 10.1046 15.5 9 15.5C7.89543 15.5 7 14.6046 7 13.5C7 12.3954 7.89543 11.5 9 11.5ZM9 2.5C10.1046 2.5 11 3.39543 11 4.5C11 5.60457 10.1046 6.5 9 6.5C7.89543 6.5 7 5.60457 7 4.5C7 3.39543 7.89543 2.5 9 2.5Z" fill="white"/>
</mask>
<g mask="url(#mask0_0_2913)">
</g>
</svg>
